<svg xmlns="http://www.w3.org/2000/svg" xmlns:xlink="http://www.w3.org/1999/xlink" width="800" zoomAndPan="magnify" viewBox="0 0 600 599.999999" height="800" preserveAspectRatio="xMidYMid meet" version="1.0"><rect x="-60" width="720" fill="#ffffff" y="-60" height="719.999999" fill-opacity="1"/><rect x="-60" width="720" fill="#5865f2" y="-60" height="719.999999" fill-opacity="1"/><path fill="#5865f2" d="M 599.949219 299.984375 C 599.949219 465.558594 465.523438 599.984375 299.949219 599.984375 C 134.375 599.984375 -0.0507812 465.558594 -0.0507812 299.984375 C -0.0507812 134.410156 134.375 -0.015625 299.949219 -0.015625 C 465.523438 -0.015625 599.949219 134.410156 599.949219 299.984375 Z M 599.949219 299.984375 " fill-opacity="1" fill-rule="evenodd"/><path fill="#ffffff" d="M 441.695312 169.921875 C 441.917969 170.003906 442.117188 170.175781 442.230469 170.398438 C 488.417969 238.359375 511.230469 315.023438 502.695312 403.269531 C 502.667969 403.640625 502.472656 403.976562 502.160156 404.203125 C 467.1875 429.90625 433.296875 445.511719 399.875 455.855469 C 399.339844 456.007812 398.761719 455.824219 398.4375 455.359375 C 390.71875 444.621094 383.707031 433.28125 377.558594 421.386719 C 377.203125 420.679688 377.527344 419.847656 378.246094 419.566406 C 389.394531 415.363281 399.992188 410.324219 410.175781 404.371094 C 410.980469 403.90625 411.035156 402.746094 410.289062 402.199219 C 408.132812 400.589844 405.984375 398.898438 403.9375 397.21875 C 403.542969 396.90625 403.035156 396.839844 402.597656 397.046875 C 336.445312 427.621094 263.984375 427.621094 197.042969 397.046875 C 196.605469 396.851562 196.085938 396.921875 195.714844 397.230469 C 193.671875 398.910156 191.527344 400.589844 189.382812 402.199219 C 188.648438 402.746094 188.707031 403.90625 189.507812 404.371094 C 199.695312 410.210938 210.289062 415.363281 221.421875 419.582031 C 222.140625 419.863281 222.480469 420.679688 222.128906 421.386719 C 216.113281 433.304688 209.105469 444.636719 201.230469 455.375 C 200.894531 455.824219 200.328125 456.007812 199.792969 455.855469 C 166.539062 445.511719 132.652344 429.90625 97.664062 404.203125 C 97.371094 403.976562 97.171875 403.625 97.128906 403.257812 C 90 326.917969 104.535156 249.617188 157.554688 170.386719 C 157.679688 170.175781 157.875 170.003906 158.105469 169.921875 C 184.191406 157.929688 212.152344 149.113281 241.355469 144.089844 C 241.890625 144.003906 242.429688 144.242188 242.695312 144.722656 C 246.308594 151.117188 250.441406 159.3125 253.222656 166.015625 C 284.019531 161.316406 315.296875 161.316406 346.730469 166.015625 C 349.523438 159.453125 353.503906 151.117188 357.101562 144.722656 C 357.367188 144.230469 357.902344 143.992188 358.441406 144.089844 C 387.671875 149.140625 415.621094 157.941406 441.695312 169.921875 Z M 232.128906 356.769531 C 252.601562 356.769531 268.882812 338.261719 268.882812 315.53125 C 269.207031 292.972656 252.753906 274.308594 232.128906 274.308594 C 211.644531 274.308594 195.363281 292.804688 195.363281 315.53125 C 195.363281 338.261719 211.96875 356.769531 232.128906 356.769531 Z M 368.035156 356.769531 C 388.675781 356.769531 404.785156 338.261719 404.785156 315.53125 C 405.113281 292.972656 388.675781 274.308594 368.035156 274.308594 C 347.5625 274.308594 331.265625 292.804688 331.265625 315.53125 C 331.265625 338.261719 347.875 356.769531 368.035156 356.769531 Z M 368.035156 356.769531 " fill-opacity="1" fill-rule="evenodd"/></svg>