<svg width="1280" height="960" viewBox="0 0 1280 960" fill="none" xmlns="http://www.w3.org/2000/svg">
  <rect width="1280" height="960" fill="#E9DFC8"/>
  <rect x="92" y="88" width="1096" height="784" rx="54" fill="#F5EFE4"/>
  <rect x="160" y="164" width="560" height="626" rx="32" fill="#FFFDF8" stroke="#D6B36A" stroke-width="3"/>
  <path d="M440 164v626" stroke="#E9DFC8" stroke-width="4"/>
  <path d="M218 252h276M218 302h244M218 352h302M218 452h270M218 502h234M218 552h292M218 652h248" stroke="#2B2B2B" stroke-opacity=".16" stroke-width="20" stroke-linecap="round"/>
  <path d="M506 252h208M506 302h154M506 352h192M506 452h176M506 502h210M506 552h150M506 652h190" stroke="#2B2B2B" stroke-opacity=".12" stroke-width="20" stroke-linecap="round"/>
  <rect x="782" y="220" width="338" height="420" rx="30" fill="#232323"/>
  <rect x="822" y="276" width="258" height="54" rx="18" fill="#D6B36A"/>
  <path d="M844 394h210M844 446h172M844 498h226" stroke="#F5EFE4" stroke-opacity=".82" stroke-width="22" stroke-linecap="round"/>
  <rect x="842" y="552" width="148" height="36" rx="18" fill="#6E7D68"/>
  <circle cx="944" cy="736" r="82" fill="#D6B36A" fill-opacity=".55"/>
  <circle cx="944" cy="736" r="46" fill="#C9A55B"/>
  <path d="M176 820c218 44 438 44 658 0" stroke="#D6B36A" stroke-opacity=".32" stroke-width="10" stroke-linecap="round"/>
</svg>
